<?xml version="1.0" standalone="no"?>
<!DOCTYPE svg PUBLIC "-//W3C//DTD SVG 20010904//EN"
 "http://www.w3.org/TR/2001/REC-SVG-20010904/DTD/svg10.dtd">
<svg version="1.0" xmlns="http://www.w3.org/2000/svg"
 width="283.000000pt" height="283.000000pt" viewBox="0 0 283.000000 283.000000"
 preserveAspectRatio="xMidYMid meet">
<metadata>
Created by potrace 1.14, written by Peter Selinger 2001-2017
</metadata>
<g transform="translate(0.000000,283.000000) scale(0.100000,-0.100000)"
fill="#000000" stroke="none">
<path d="M292 1792 c-9 -3 -12 -85 -12 -338 l0 -334 35 0 35 0 2 261 3 261
120 -206 c143 -244 138 -238 158 -230 9 3 50 65 93 137 42 73 93 159 112 192
80 136 72 154 72 -147 l0 -268 34 0 35 0 -1 334 c-1 317 -2 335 -20 339 -24 7
-53 -18 -81 -69 -54 -100 -242 -423 -247 -423 -6 -1 -273 457 -278 475 -3 13
-40 23 -60 16z"/>
<path d="M1198 1780 c-2 -8 -3 -159 -3 -335 l0 -320 223 -3 c122 -1 222 1 223
5 0 5 2 18 3 31 l3 22 -189 0 -188 0 0 305 c0 168 -3 305 -7 306 -49 5 -62 3
-65 -11z"/>
<path d="M1926 1779 c-96 -29 -155 -81 -207 -179 -20 -38 -23 -60 -24 -145 0
-89 3 -105 27 -151 37 -70 92 -122 166 -157 56 -26 75 -30 154 -30 82 0 95 3
155 34 81 41 95 61 68 87 -20 19 -21 18 -51 -4 -47 -36 -93 -51 -166 -53 -57
-2 -77 2 -132 28 -98 47 -143 114 -153 228 -15 167 113 298 288 295 60 -1 111
-18 160 -53 l31 -22 21 22 22 22 -35 30 c-74 63 -212 83 -324 48z"/>
<path d="M2573 1598 c-4 -7 -8 -164 -8 -348 l0 -335 -627 -3 c-626 -2 -627 -2
-633 -23 -4 -12 -3 -25 2 -30 5 -5 282 -8 664 -7 l654 3 1 360 c0 198 -3 368
-8 378 -10 20 -33 22 -45 5z"/>
</g>
</svg>
